<?xml version="1.0" encoding="UTF-8" standalone="no"?>
<!-- Created with Inkscape (http://www.inkscape.org/) -->

<svg
   xmlns:dc="http://purl.org/dc/elements/1.1/"
   xmlns:cc="http://creativecommons.org/ns#"
   xmlns:rdf="http://www.w3.org/1999/02/22-rdf-syntax-ns#"
   xmlns:svg="http://www.w3.org/2000/svg"
   xmlns="http://www.w3.org/2000/svg"
   xmlns:sodipodi="http://sodipodi.sourceforge.net/DTD/sodipodi-0.dtd"
   xmlns:inkscape="http://www.inkscape.org/namespaces/inkscape"
   width="48pt"
   height="48pt"
   viewBox="0 0 16.933334 16.933333"
   version="1.1"
   id="svg979"
   inkscape:version="0.92.4 (5da689c313, 2019-01-14)"
   sodipodi:docname="21 - Gardening Tools.svg"
   inkscape:export-filename="E:\TR Design Studio Creative\Project Design\TR Creative Design\Icon Design\Project Hiring\Icon Icons\Project - 001\001 - Agriculture And Farming\Filled Line\Export\20 - Wheat.png"
   inkscape:export-xdpi="768"
   inkscape:export-ydpi="768">
  <defs
     id="defs973" />
  <sodipodi:namedview
     id="base"
     pagecolor="#ffffff"
     bordercolor="#666666"
     borderopacity="1.0"
     inkscape:pageopacity="0.0"
     inkscape:pageshadow="2"
     inkscape:zoom="4.2734375"
     inkscape:cx="31.889908"
     inkscape:cy="34.753721"
     inkscape:document-units="pt"
     inkscape:current-layer="layer1"
     showgrid="false"
     units="pt"
     inkscape:window-width="1366"
     inkscape:window-height="716"
     inkscape:window-x="-8"
     inkscape:window-y="-8"
     inkscape:window-maximized="1"
     inkscape:snap-bbox="true"
     inkscape:bbox-nodes="true"
     inkscape:snap-nodes="false"
     showguides="false"
     inkscape:snap-global="true">
    <inkscape:grid
       type="xygrid"
       id="grid1526" />
    <sodipodi:guide
       position="0.97013909,15.963209"
       orientation="56.666615,0"
       id="guide1528"
       inkscape:locked="false" />
    <sodipodi:guide
       position="0.97013909,0.97016731"
       orientation="0,56.666667"
       id="guide1530"
       inkscape:locked="false" />
    <sodipodi:guide
       position="15.963195,0.97016731"
       orientation="-56.666615,0"
       id="guide1532"
       inkscape:locked="false" />
    <sodipodi:guide
       position="15.963195,15.963209"
       orientation="0,-56.666667"
       id="guide1534"
       inkscape:locked="false" />
  </sodipodi:namedview>
  <metadata
     id="metadata976">
    <rdf:RDF>
      <cc:Work
         rdf:about="">
        <dc:format>image/svg+xml</dc:format>
        <dc:type
           rdf:resource="http://purl.org/dc/dcmitype/StillImage" />
        <dc:title></dc:title>
      </cc:Work>
    </rdf:RDF>
  </metadata>
  <g
     inkscape:label="Layer 1"
     inkscape:groupmode="layer"
     id="layer1"
     transform="translate(0,-280.06668)">
    <g
       id="g3834"
       transform="matrix(1.2312182,0,0,1.2312182,-5.178322,-70.582782)"
       style="stroke-width:0.81220371">
      <g
         inkscape:export-ydpi="826.16193"
         inkscape:export-xdpi="826.16193"
         id="g2191"
         style="display:inline;stroke-width:0.81220371"
         transform="translate(48.759079,-43.00109)">
        <path
           style="color:#000000;font-style:normal;font-variant:normal;font-weight:normal;font-stretch:normal;font-size:medium;line-height:normal;font-family:sans-serif;font-variant-ligatures:normal;font-variant-position:normal;font-variant-caps:normal;font-variant-numeric:normal;font-variant-alternates:normal;font-feature-settings:normal;text-indent:0;text-align:start;text-decoration:none;text-decoration-line:none;text-decoration-style:solid;text-decoration-color:#000000;letter-spacing:normal;word-spacing:normal;text-transform:none;writing-mode:lr-tb;direction:ltr;text-orientation:mixed;dominant-baseline:auto;baseline-shift:baseline;text-anchor:start;white-space:normal;shape-padding:0;clip-rule:nonzero;display:inline;overflow:visible;visibility:visible;opacity:1;isolation:auto;mix-blend-mode:normal;color-interpolation:sRGB;color-interpolation-filters:linearRGB;solid-color:#000000;solid-opacity:1;vector-effect:none;fill:#ffbf89;fill-opacity:1;fill-rule:nonzero;stroke:none;stroke-width:0.42979139;stroke-linecap:round;stroke-linejoin:round;stroke-miterlimit:4;stroke-dasharray:none;stroke-dashoffset:0;stroke-opacity:1;color-rendering:auto;image-rendering:auto;shape-rendering:auto;text-rendering:auto;enable-background:accumulate"
           d="m -41.142578,334.14844 a 0.26460996,0.26460996 0 0 0 -0.238281,0.26367 v 5.02734 a 0.26460996,0.26460996 0 0 0 0.265625,0.26563 l 1.05664,-0.002 a 0.26460996,0.26460996 0 0 0 0.265625,-0.26367 v -5.02734 a 0.26460996,0.26460996 0 0 0 -0.265625,-0.26367 h -1.058594 a 0.26460996,0.26460996 0 0 0 -0.02539,0 z"
           id="path1819"
           inkscape:connector-curvature="0"
           inkscape:export-xdpi="826.16193"
           inkscape:export-ydpi="826.16193" />
        <path
           sodipodi:nodetypes="cccccccccccc"
           inkscape:connector-curvature="0"
           id="path1861"
           d="m -41.142761,334.13173 c -0.134525,0.0146 -0.236402,0.12824 -0.23616,0.26355 v 0.79479 h 0.578742 c 0.145314,5.8e-4 0.262971,0.11824 0.263552,0.26355 v 4.25038 h 0.480105 c 0.146117,-5.8e-4 0.264104,-0.11949 0.263551,-0.26561 v -5.04311 c -5.81e-4,-0.14531 -0.118237,-0.26297 -0.263551,-0.26355 h -1.05885 c -0.0091,-4.7e-4 -0.01826,-4.7e-4 -0.02739,0 z"
           style="color:#000000;font-style:normal;font-variant:normal;font-weight:normal;font-stretch:normal;font-size:medium;line-height:normal;font-family:sans-serif;font-variant-ligatures:normal;font-variant-position:normal;font-variant-caps:normal;font-variant-numeric:normal;font-variant-alternates:normal;font-feature-settings:normal;text-indent:0;text-align:start;text-decoration:none;text-decoration-line:none;text-decoration-style:solid;text-decoration-color:#000000;letter-spacing:normal;word-spacing:normal;text-transform:none;writing-mode:lr-tb;direction:ltr;text-orientation:mixed;dominant-baseline:auto;baseline-shift:baseline;text-anchor:start;white-space:normal;shape-padding:0;clip-rule:nonzero;display:inline;overflow:visible;visibility:visible;opacity:1;isolation:auto;mix-blend-mode:normal;color-interpolation:sRGB;color-interpolation-filters:linearRGB;solid-color:#000000;solid-opacity:1;vector-effect:none;fill:#ff9f67;fill-opacity:1;fill-rule:nonzero;stroke:none;stroke-width:0.42979139;stroke-linecap:round;stroke-linejoin:round;stroke-miterlimit:4;stroke-dasharray:none;stroke-dashoffset:0;stroke-opacity:1;color-rendering:auto;image-rendering:auto;shape-rendering:auto;text-rendering:auto;enable-background:accumulate"
           inkscape:export-xdpi="826.16193"
           inkscape:export-ydpi="826.16193" />
        <path
           style="color:#000000;font-style:normal;font-variant:normal;font-weight:normal;font-stretch:normal;font-size:medium;line-height:normal;font-family:sans-serif;font-variant-ligatures:normal;font-variant-position:normal;font-variant-caps:normal;font-variant-numeric:normal;font-variant-alternates:normal;font-feature-settings:normal;text-indent:0;text-align:start;text-decoration:none;text-decoration-line:none;text-decoration-style:solid;text-decoration-color:#000000;letter-spacing:normal;word-spacing:normal;text-transform:none;writing-mode:lr-tb;direction:ltr;text-orientation:mixed;dominant-baseline:auto;baseline-shift:baseline;text-anchor:start;white-space:normal;shape-padding:0;clip-rule:nonzero;display:inline;overflow:visible;visibility:visible;opacity:1;isolation:auto;mix-blend-mode:normal;color-interpolation:sRGB;color-interpolation-filters:linearRGB;solid-color:#000000;solid-opacity:1;vector-effect:none;fill:#ffbf89;fill-opacity:1;fill-rule:nonzero;stroke:none;stroke-width:0.42979139;stroke-linecap:round;stroke-linejoin:round;stroke-miterlimit:4;stroke-dasharray:none;stroke-dashoffset:0;stroke-opacity:1;color-rendering:auto;image-rendering:auto;shape-rendering:auto;text-rendering:auto;enable-background:accumulate"
           d="m -35.691406,334.41211 v 5.04297 c -5.59e-4,0.14617 0.117503,0.2651 0.263672,0.26562 h 1.058593 c 0.146169,-5.2e-4 0.264231,-0.11945 0.263672,-0.26562 v -5.04297 c -5.16e-4,-0.14541 -0.118264,-0.26316 -0.263672,-0.26367 h -1.058593 c -0.163337,0 -0.263672,0.15806 -0.263672,0.26367 z"
           id="path1788"
           inkscape:connector-curvature="0"
           sodipodi:nodetypes="ccccccccc"
           inkscape:export-xdpi="826.16193"
           inkscape:export-ydpi="826.16193" />
        <path
           sodipodi:nodetypes="ccccccccc"
           style="color:#000000;font-style:normal;font-variant:normal;font-weight:normal;font-stretch:normal;font-size:medium;line-height:normal;font-family:sans-serif;font-variant-ligatures:normal;font-variant-position:normal;font-variant-caps:normal;font-variant-numeric:normal;font-variant-alternates:normal;font-feature-settings:normal;text-indent:0;text-align:start;text-decoration:none;text-decoration-line:none;text-decoration-style:solid;text-decoration-color:#000000;letter-spacing:normal;word-spacing:normal;text-transform:none;writing-mode:lr-tb;direction:ltr;text-orientation:mixed;dominant-baseline:auto;baseline-shift:baseline;text-anchor:start;white-space:normal;shape-padding:0;clip-rule:nonzero;display:inline;overflow:visible;visibility:visible;opacity:1;isolation:auto;mix-blend-mode:normal;color-interpolation:sRGB;color-interpolation-filters:linearRGB;solid-color:#000000;solid-opacity:1;vector-effect:none;fill:#455a64;fill-opacity:1;fill-rule:nonzero;stroke:none;stroke-width:0.42979139;stroke-linecap:round;stroke-linejoin:round;stroke-miterlimit:4;stroke-dasharray:none;stroke-dashoffset:0;stroke-opacity:1;color-rendering:auto;image-rendering:auto;shape-rendering:auto;text-rendering:auto;enable-background:accumulate"
           d="m -41.644531,333.06453 c -0.146932,-5.6e-4 -0.266187,0.11869 -0.265625,0.26562 v 1.08196 c 5.18e-4,0.14617 0.119455,0.26423 0.265625,0.26367 h 2.115234 c 0.14617,5.6e-4 0.265107,-0.1175 0.265625,-0.26367 v -1.08196 c 5.62e-4,-0.14693 -0.118693,-0.26618 -0.265625,-0.26562 z"
           id="path1815"
           inkscape:connector-curvature="0"
           inkscape:export-xdpi="826.16193"
           inkscape:export-ydpi="826.16193" />
        <path
           style="color:#000000;font-style:normal;font-variant:normal;font-weight:normal;font-stretch:normal;font-size:medium;line-height:normal;font-family:sans-serif;font-variant-ligatures:normal;font-variant-position:normal;font-variant-caps:normal;font-variant-numeric:normal;font-variant-alternates:normal;font-feature-settings:normal;text-indent:0;text-align:start;text-decoration:none;text-decoration-line:none;text-decoration-style:solid;text-decoration-color:#000000;letter-spacing:normal;word-spacing:normal;text-transform:none;writing-mode:lr-tb;direction:ltr;text-orientation:mixed;dominant-baseline:auto;baseline-shift:baseline;text-anchor:start;white-space:normal;shape-padding:0;clip-rule:nonzero;display:inline;overflow:visible;visibility:visible;opacity:1;isolation:auto;mix-blend-mode:normal;color-interpolation:sRGB;color-interpolation-filters:linearRGB;solid-color:#000000;solid-opacity:1;vector-effect:none;fill:#e9e9e9;fill-opacity:1;fill-rule:nonzero;stroke:none;stroke-width:0.42979139;stroke-linecap:round;stroke-linejoin:round;stroke-miterlimit:4;stroke-dasharray:none;stroke-dashoffset:0;stroke-opacity:1;color-rendering:auto;image-rendering:auto;shape-rendering:auto;text-rendering:auto;enable-background:accumulate"
           d="m -41.296875,328.58789 a 0.26460996,0.26460996 0 0 0 -0.259766,0.26758 v 4.23437 a 0.2646485,0.2646485 0 1 0 0.529297,0 v -4.23437 a 0.26460996,0.26460996 0 0 0 -0.269531,-0.26758 z"
           id="path1346"
           inkscape:connector-curvature="0"
           inkscape:export-xdpi="826.16193"
           inkscape:export-ydpi="826.16193" />
        <path
           style="color:#000000;font-style:normal;font-variant:normal;font-weight:normal;font-stretch:normal;font-size:medium;line-height:normal;font-family:sans-serif;font-variant-ligatures:normal;font-variant-position:normal;font-variant-caps:normal;font-variant-numeric:normal;font-variant-alternates:normal;font-feature-settings:normal;text-indent:0;text-align:start;text-decoration:none;text-decoration-line:none;text-decoration-style:solid;text-decoration-color:#000000;letter-spacing:normal;word-spacing:normal;text-transform:none;writing-mode:lr-tb;direction:ltr;text-orientation:mixed;dominant-baseline:auto;baseline-shift:baseline;text-anchor:start;white-space:normal;shape-padding:0;clip-rule:nonzero;display:inline;overflow:visible;visibility:visible;opacity:1;isolation:auto;mix-blend-mode:normal;color-interpolation:sRGB;color-interpolation-filters:linearRGB;solid-color:#000000;solid-opacity:1;vector-effect:none;fill:#e9e9e9;fill-opacity:1;fill-rule:nonzero;stroke:none;stroke-width:0.42979139;stroke-linecap:round;stroke-linejoin:round;stroke-miterlimit:4;stroke-dasharray:none;stroke-dashoffset:0;stroke-opacity:1;color-rendering:auto;image-rendering:auto;shape-rendering:auto;text-rendering:auto;enable-background:accumulate"
           d="m -39.884766,328.58789 a 0.26460996,0.26460996 0 0 0 -0.261718,0.26758 v 4.23437 a 0.264648,0.264648 0 1 0 0.529296,0 v -4.23437 a 0.26460996,0.26460996 0 0 0 -0.267578,-0.26758 z"
           id="path1373"
           inkscape:connector-curvature="0"
           inkscape:export-xdpi="826.16193"
           inkscape:export-ydpi="826.16193" />
        <path
           style="color:#000000;font-style:normal;font-variant:normal;font-weight:normal;font-stretch:normal;font-size:medium;line-height:normal;font-family:sans-serif;font-variant-ligatures:normal;font-variant-position:normal;font-variant-caps:normal;font-variant-numeric:normal;font-variant-alternates:normal;font-feature-settings:normal;text-indent:0;text-align:start;text-decoration:none;text-decoration-line:none;text-decoration-style:solid;text-decoration-color:#000000;letter-spacing:normal;word-spacing:normal;text-transform:none;writing-mode:lr-tb;direction:ltr;text-orientation:mixed;dominant-baseline:auto;baseline-shift:baseline;text-anchor:start;white-space:normal;shape-padding:0;clip-rule:nonzero;display:inline;overflow:visible;visibility:visible;opacity:1;isolation:auto;mix-blend-mode:normal;color-interpolation:sRGB;color-interpolation-filters:linearRGB;solid-color:#000000;solid-opacity:1;vector-effect:none;fill:#f9f9f9;fill-opacity:1;fill-rule:nonzero;stroke:none;stroke-width:0.42979139;stroke-linecap:round;stroke-linejoin:round;stroke-miterlimit:4;stroke-dasharray:none;stroke-dashoffset:0;stroke-opacity:1;color-rendering:auto;image-rendering:auto;shape-rendering:auto;text-rendering:auto;enable-background:accumulate"
           d="m -42.707031,328.58789 a 0.26460996,0.26460996 0 0 0 -0.261719,0.26758 v 2.91015 c 0,0.39829 0.06779,0.78205 0.279297,1.0879 0.211509,0.30584 0.582489,0.5 1.044922,0.5 h 2.115234 c 0.462433,0 0.833413,-0.19416 1.044922,-0.5 0.211509,-0.30585 0.279297,-0.68961 0.279297,-1.0879 v -2.91015 a 0.2646485,0.2646485 0 1 0 -0.529297,0 v 2.91015 c 0,0.33462 -0.06633,0.61472 -0.185547,0.78711 -0.11922,0.1724 -0.278058,0.27149 -0.609375,0.27149 h -2.115234 c -0.331317,0 -0.490155,-0.0991 -0.609375,-0.27149 -0.11922,-0.17239 -0.185547,-0.45249 -0.185547,-0.78711 v -2.91015 a 0.26460996,0.26460996 0 0 0 -0.267578,-0.26758 z"
           id="rect1344"
           inkscape:connector-curvature="0"
           inkscape:export-xdpi="826.16193"
           inkscape:export-ydpi="826.16193" />
        <path
           style="color:#000000;font-style:normal;font-variant:normal;font-weight:normal;font-stretch:normal;font-size:medium;line-height:normal;font-family:sans-serif;font-variant-ligatures:normal;font-variant-position:normal;font-variant-caps:normal;font-variant-numeric:normal;font-variant-alternates:normal;font-feature-settings:normal;text-indent:0;text-align:start;text-decoration:none;text-decoration-line:none;text-decoration-style:solid;text-decoration-color:#000000;letter-spacing:normal;word-spacing:normal;text-transform:none;writing-mode:lr-tb;direction:ltr;text-orientation:mixed;dominant-baseline:auto;baseline-shift:baseline;text-anchor:start;white-space:normal;shape-padding:0;clip-rule:nonzero;display:inline;overflow:visible;visibility:visible;opacity:1;isolation:auto;mix-blend-mode:normal;color-interpolation:sRGB;color-interpolation-filters:linearRGB;solid-color:#000000;solid-opacity:1;vector-effect:none;fill:#f9f9f9;fill-opacity:1;fill-rule:nonzero;stroke:none;stroke-width:0.42979139;stroke-linecap:round;stroke-linejoin:round;stroke-miterlimit:4;stroke-dasharray:none;stroke-dashoffset:0;stroke-opacity:1;color-rendering:auto;image-rendering:auto;shape-rendering:auto;text-rendering:auto;enable-background:accumulate"
           d="m -34.898438,328.5918 c -0.343245,0 -0.687337,0.12511 -0.955078,0.375 l -0.435546,0.4082 c -0.512546,0.47838 -1.123047,1.1572 -1.123047,1.97461 v 1.47461 c 0,0.43516 0.357805,0.79492 0.792968,0.79492 h 1.058594 a 0.26460996,0.26460996 0 0 0 0.265625,-0.26562 v -0.79297 h 0.792969 v 0.79297 a 0.26460996,0.26460996 0 0 0 0.265625,0.26562 h 1.05664 c 0.435164,0 0.794922,-0.35976 0.794922,-0.79492 v -1.47461 c -10e-7,-0.81741 -0.610501,-1.49623 -1.123046,-1.97461 l -0.435547,-0.4082 c -0.267741,-0.24989 -0.611833,-0.375 -0.955079,-0.375 z"
           id="path1761"
           inkscape:connector-curvature="0"
           inkscape:export-xdpi="826.16193"
           inkscape:export-ydpi="826.16193" />
        <path
           style="color:#000000;font-style:normal;font-variant:normal;font-weight:normal;font-stretch:normal;font-size:medium;line-height:normal;font-family:sans-serif;font-variant-ligatures:normal;font-variant-position:normal;font-variant-caps:normal;font-variant-numeric:normal;font-variant-alternates:normal;font-feature-settings:normal;text-indent:0;text-align:start;text-decoration:none;text-decoration-line:none;text-decoration-style:solid;text-decoration-color:#000000;letter-spacing:normal;word-spacing:normal;text-transform:none;writing-mode:lr-tb;direction:ltr;text-orientation:mixed;dominant-baseline:auto;baseline-shift:baseline;text-anchor:start;white-space:normal;shape-padding:0;clip-rule:nonzero;display:inline;overflow:visible;visibility:visible;opacity:1;isolation:auto;mix-blend-mode:normal;color-interpolation:sRGB;color-interpolation-filters:linearRGB;solid-color:#000000;solid-opacity:1;vector-effect:none;fill:#e9e9e9;fill-opacity:1;fill-rule:nonzero;stroke:none;stroke-width:0.42979139;stroke-linecap:round;stroke-linejoin:round;stroke-miterlimit:4;stroke-dasharray:none;stroke-dashoffset:0;stroke-opacity:1;color-rendering:auto;image-rendering:auto;shape-rendering:auto;text-rendering:auto;enable-background:accumulate"
           d="m -34.898425,328.5921 c -0.180136,0 -0.359206,0.0366 -0.528651,0.10542 0.153271,0.0623 0.298702,0.15112 0.425815,0.26975 l 0.435116,0.40773 c 0.512545,0.47838 1.123444,1.15766 1.123444,1.97507 v 1.47433 c 0,0.43446 -0.35901,0.79363 -0.793231,0.79478 h 1.056264 c 0.435166,0 0.795301,-0.35962 0.795301,-0.79478 v -1.47433 c 0,-0.81741 -0.610899,-1.49669 -1.123445,-1.97507 l -0.435115,-0.40773 c -0.267743,-0.24989 -0.612251,-0.37517 -0.955498,-0.37517 z"
           id="path1827"
           inkscape:connector-curvature="0"
           sodipodi:nodetypes="scccsscsssccs"
           inkscape:export-xdpi="826.16193"
           inkscape:export-ydpi="826.16193" />
        <path
           style="color:#000000;font-style:normal;font-variant:normal;font-weight:normal;font-stretch:normal;font-size:medium;line-height:normal;font-family:sans-serif;font-variant-ligatures:normal;font-variant-position:normal;font-variant-caps:normal;font-variant-numeric:normal;font-variant-alternates:normal;font-feature-settings:normal;text-indent:0;text-align:start;text-decoration:none;text-decoration-line:none;text-decoration-style:solid;text-decoration-color:#000000;letter-spacing:normal;word-spacing:normal;text-transform:none;writing-mode:lr-tb;direction:ltr;text-orientation:mixed;dominant-baseline:auto;baseline-shift:baseline;text-anchor:start;white-space:normal;shape-padding:0;clip-rule:nonzero;display:inline;overflow:visible;visibility:visible;opacity:1;isolation:auto;mix-blend-mode:normal;color-interpolation:sRGB;color-interpolation-filters:linearRGB;solid-color:#000000;solid-opacity:1;vector-effect:none;fill:#ff9f67;fill-opacity:1;fill-rule:nonzero;stroke:none;stroke-width:0.42979139;stroke-linecap:round;stroke-linejoin:round;stroke-miterlimit:4;stroke-dasharray:none;stroke-dashoffset:0;stroke-opacity:1;color-rendering:auto;image-rendering:auto;shape-rendering:auto;text-rendering:auto;enable-background:accumulate"
           d="m -35.455259,334.14849 c -0.134525,0.0146 -0.236402,0.12824 -0.23616,0.26355 v 0.79479 h 0.578742 c 0.145314,5.8e-4 0.262971,0.11824 0.263552,0.26355 v 4.25038 h 0.480105 c 0.146117,-5.8e-4 0.264104,-0.11949 0.263551,-0.26561 v -5.04311 c -5.81e-4,-0.14531 -0.118237,-0.26297 -0.263551,-0.26355 h -1.05885 c -0.0091,-4.7e-4 -0.01826,-4.7e-4 -0.02739,0 z"
           id="path1842"
           inkscape:connector-curvature="0"
           sodipodi:nodetypes="cccccccccccc"
           inkscape:export-xdpi="826.16193"
           inkscape:export-ydpi="826.16193" />
        <path
           style="color:#000000;font-style:normal;font-variant:normal;font-weight:normal;font-stretch:normal;font-size:medium;line-height:normal;font-family:sans-serif;font-variant-ligatures:normal;font-variant-position:normal;font-variant-caps:normal;font-variant-numeric:normal;font-variant-alternates:normal;font-feature-settings:normal;text-indent:0;text-align:start;text-decoration:none;text-decoration-line:none;text-decoration-style:solid;text-decoration-color:#000000;letter-spacing:normal;word-spacing:normal;text-transform:none;writing-mode:lr-tb;direction:ltr;text-orientation:mixed;dominant-baseline:auto;baseline-shift:baseline;text-anchor:start;white-space:normal;shape-padding:0;clip-rule:nonzero;display:inline;overflow:visible;visibility:visible;opacity:1;isolation:auto;mix-blend-mode:normal;color-interpolation:sRGB;color-interpolation-filters:linearRGB;solid-color:#000000;solid-opacity:1;vector-effect:none;fill:#455a64;fill-opacity:1;fill-rule:nonzero;stroke:none;stroke-width:0.42979139;stroke-linecap:round;stroke-linejoin:round;stroke-miterlimit:4;stroke-dasharray:none;stroke-dashoffset:0;stroke-opacity:1;color-rendering:auto;image-rendering:auto;shape-rendering:auto;text-rendering:auto;enable-background:accumulate"
           d="m -35.824253,332.34042 v 0.75 c -0.146174,-5.6e-4 -0.265112,0.11751 -0.265625,0.26368 v 1.05859 c 5.18e-4,0.14617 0.119455,0.26423 0.265625,0.26367 h 1.851563 c 0.14617,5.6e-4 0.265107,-0.1175 0.265625,-0.26367 v -1.05859 c -5.13e-4,-0.14617 -0.119451,-0.26424 -0.265625,-0.26368 v -0.79492 c -5.16e-4,-0.14541 -0.118264,-0.26316 -0.263672,-0.26367 h -1.275391 c -0.235641,0 -0.3125,0.11553 -0.3125,0.30859 z"
           id="path1781"
           inkscape:connector-curvature="0"
           sodipodi:nodetypes="ccccccccccccc"
           inkscape:export-xdpi="826.16193"
           inkscape:export-ydpi="826.16193" />
        <path
           style="color:#000000;font-style:normal;font-variant:normal;font-weight:normal;font-stretch:normal;font-size:medium;line-height:normal;font-family:sans-serif;font-variant-ligatures:normal;font-variant-position:normal;font-variant-caps:normal;font-variant-numeric:normal;font-variant-alternates:normal;font-feature-settings:normal;text-indent:0;text-align:start;text-decoration:none;text-decoration-line:none;text-decoration-style:solid;text-decoration-color:#000000;letter-spacing:normal;word-spacing:normal;text-transform:none;writing-mode:lr-tb;direction:ltr;text-orientation:mixed;dominant-baseline:auto;baseline-shift:baseline;text-anchor:start;white-space:normal;shape-padding:0;clip-rule:nonzero;display:inline;overflow:visible;visibility:visible;opacity:1;isolation:auto;mix-blend-mode:normal;color-interpolation:sRGB;color-interpolation-filters:linearRGB;solid-color:#000000;solid-opacity:1;vector-effect:none;fill:#455a64;fill-opacity:1;fill-rule:nonzero;stroke:none;stroke-width:0.42979139;stroke-linecap:round;stroke-linejoin:round;stroke-miterlimit:4;stroke-dasharray:none;stroke-dashoffset:0;stroke-opacity:1;color-rendering:auto;image-rendering:auto;shape-rendering:auto;text-rendering:auto;enable-background:accumulate"
           d="m -41.117188,339.17383 c -0.435161,0 -0.792968,0.35976 -0.792968,0.79492 v 0.48047 a 0.26460996,0.26460996 0 0 0 0.01953,0.15234 0.26460996,0.26460996 0 0 0 0,0.002 0.26460996,0.26460996 0 0 0 0.01172,0.0215 0.26460996,0.26460996 0 0 0 0,0.002 0.26460996,0.26460996 0 0 0 0.01367,0.0215 0.26460996,0.26460996 0 0 0 0,0.002 0.26460996,0.26460996 0 0 0 0.0332,0.0371 0.26460996,0.26460996 0 0 0 0.002,0.002 0.26460996,0.26460996 0 0 0 0.01758,0.0176 0.26460996,0.26460996 0 0 0 0.002,0 0.26460996,0.26460996 0 0 0 0.01953,0.0156 0.26460996,0.26460996 0 0 0 0.002,0 0.26460996,0.26460996 0 0 0 0.04492,0.0234 0.26460996,0.26460996 0 0 0 0.002,0 0.26460996,0.26460996 0 0 0 0.140626,0.0156 h 2.072265 a 0.26460996,0.26460996 0 0 0 0.265625,-0.26367 v -0.5293 c 0,-0.43516 -0.35976,-0.79492 -0.794922,-0.79492 z"
           id="path1824"
           inkscape:connector-curvature="0"
           inkscape:export-xdpi="826.16193"
           inkscape:export-ydpi="826.16193" />
        <path
           style="color:#000000;font-style:normal;font-variant:normal;font-weight:normal;font-stretch:normal;font-size:medium;line-height:normal;font-family:sans-serif;font-variant-ligatures:normal;font-variant-position:normal;font-variant-caps:normal;font-variant-numeric:normal;font-variant-alternates:normal;font-feature-settings:normal;text-indent:0;text-align:start;text-decoration:none;text-decoration-line:none;text-decoration-style:solid;text-decoration-color:#000000;letter-spacing:normal;word-spacing:normal;text-transform:none;writing-mode:lr-tb;direction:ltr;text-orientation:mixed;dominant-baseline:auto;baseline-shift:baseline;text-anchor:start;white-space:normal;shape-padding:0;clip-rule:nonzero;display:inline;overflow:visible;visibility:visible;opacity:1;isolation:auto;mix-blend-mode:normal;color-interpolation:sRGB;color-interpolation-filters:linearRGB;solid-color:#000000;solid-opacity:1;vector-effect:none;fill:#455a64;fill-opacity:1;fill-rule:nonzero;stroke:none;stroke-width:0.42979139;stroke-linecap:round;stroke-linejoin:round;stroke-miterlimit:4;stroke-dasharray:none;stroke-dashoffset:0;stroke-opacity:1;color-rendering:auto;image-rendering:auto;shape-rendering:auto;text-rendering:auto;enable-background:accumulate"
           d="m -35.425781,339.17383 c -0.435162,0 -0.792969,0.35976 -0.792969,0.79492 v 0.48047 c 0,0.19113 0.07615,0.31278 0.308699,0.31278 h 2.072265 c 0.145408,-5.1e-4 0.263156,-0.11826 0.263672,-0.26367 v -0.5293 c 0,-0.43516 -0.357807,-0.79492 -0.792969,-0.79492 z"
           id="path1795"
           inkscape:connector-curvature="0"
           sodipodi:nodetypes="csccccscc"
           inkscape:export-xdpi="826.16193"
           inkscape:export-ydpi="826.16193" />
        <path
           style="color:#000000;font-style:normal;font-variant:normal;font-weight:normal;font-stretch:normal;font-size:medium;line-height:normal;font-family:sans-serif;font-variant-ligatures:normal;font-variant-position:normal;font-variant-caps:normal;font-variant-numeric:normal;font-variant-alternates:normal;font-feature-settings:normal;text-indent:0;text-align:start;text-decoration:none;text-decoration-line:none;text-decoration-style:solid;text-decoration-color:#000000;letter-spacing:normal;word-spacing:normal;text-transform:none;writing-mode:lr-tb;direction:ltr;text-orientation:mixed;dominant-baseline:auto;baseline-shift:baseline;text-anchor:start;white-space:normal;shape-padding:0;clip-rule:nonzero;display:inline;overflow:visible;visibility:visible;opacity:1;isolation:auto;mix-blend-mode:normal;color-interpolation:sRGB;color-interpolation-filters:linearRGB;solid-color:#000000;solid-opacity:1;vector-effect:none;fill:#202733;fill-opacity:1;fill-rule:nonzero;stroke:none;stroke-width:0.42979139;stroke-linecap:round;stroke-linejoin:round;stroke-miterlimit:4;stroke-dasharray:none;stroke-dashoffset:0;stroke-opacity:1;color-rendering:auto;image-rendering:auto;shape-rendering:auto;text-rendering:auto;enable-background:accumulate"
           d="m -35.425935,339.17358 c -0.341653,0 -0.632544,0.22327 -0.743106,0.52917 l 0.743625,5.3e-4 c 0.43516,0 0.792715,0.35962 0.792715,0.79478 v 0.26407 h 0.794785 c 0.145407,-5.3e-4 0.263033,-0.11866 0.263549,-0.26407 v -0.52917 c 0,-0.43516 -0.357555,-0.79478 -0.792716,-0.79478 z"
           id="path1848"
           inkscape:connector-curvature="0"
           inkscape:export-xdpi="826.16193"
           inkscape:export-ydpi="826.16193" />
        <path
           style="color:#000000;font-style:normal;font-variant:normal;font-weight:normal;font-stretch:normal;font-size:medium;line-height:normal;font-family:sans-serif;font-variant-ligatures:normal;font-variant-position:normal;font-variant-caps:normal;font-variant-numeric:normal;font-variant-alternates:normal;font-feature-settings:normal;text-indent:0;text-align:start;text-decoration:none;text-decoration-line:none;text-decoration-style:solid;text-decoration-color:#000000;letter-spacing:normal;word-spacing:normal;text-transform:none;writing-mode:lr-tb;direction:ltr;text-orientation:mixed;dominant-baseline:auto;baseline-shift:baseline;text-anchor:start;white-space:normal;shape-padding:0;clip-rule:nonzero;display:inline;overflow:visible;visibility:visible;opacity:1;isolation:auto;mix-blend-mode:normal;color-interpolation:sRGB;color-interpolation-filters:linearRGB;solid-color:#000000;solid-opacity:1;vector-effect:none;fill:#202733;fill-opacity:1;fill-rule:nonzero;stroke:none;stroke-width:0.42979139;stroke-linecap:round;stroke-linejoin:round;stroke-miterlimit:4;stroke-dasharray:none;stroke-dashoffset:0;stroke-opacity:1;color-rendering:auto;image-rendering:auto;shape-rendering:auto;text-rendering:auto;enable-background:accumulate"
           d="m -41.117226,339.17364 c -0.341651,0 -0.632545,0.22326 -0.743106,0.52916 l 0.743625,5.3e-4 c 0.43516,0 0.794781,0.35963 0.794781,0.79479 v 0.26354 h 0.792719 a 0.26460995,0.26460995 0 0 0 0.265615,-0.26354 v -0.52917 c 0,-0.43516 -0.359622,-0.79479 -0.794782,-0.79479 z"
           id="path1854"
           inkscape:connector-curvature="0"
           inkscape:export-xdpi="826.16193"
           inkscape:export-ydpi="826.16193" />
      </g>
      <path
         inkscape:export-ydpi="826.16193"
         inkscape:export-xdpi="826.16193"
         sodipodi:nodetypes="ccsccccccsccccsccccccsssscsccccccccccscscccccssscccccsccccscccccsssccccccsssccccccsssccccccccccccccccccccccccccccsssccsssssccss"
         inkscape:connector-curvature="0"
         id="rect1344-2"
         d="m 6.0522896,285.58817 c -0.146326,0.001 -0.263705,0.12136 -0.261999,0.26768 v 2.91042 c 0,0.39829 0.06806,0.78194 0.27957,1.08779 0.169068,0.24447 0.4411631,0.41528 0.7792801,0.47491 v 1.08365 c 5.292e-4,0.14617 0.119446,0.26411 0.265617,0.26355 h 0.263549 v 4.54701 c -0.30649,0.11048 -0.529166,0.40376 -0.529166,0.74621 v 0.48007 c 0,0.18133 0.08553,0.31284 0.308678,0.31284 h 2.072228 c 0.146322,7.9e-4 0.2655509,-0.11723 0.266133,-0.26355 v -0.52917 c 0,-0.34186 -0.223488,-0.63425 -0.529685,-0.74517 v -4.54804 h 0.263552 c 0.1461691,5.3e-4 0.2650961,-0.11738 0.2656149,-0.26355 v -1.08366 c 0.338119,-0.0596 0.6102144,-0.23043 0.7792824,-0.4749 0.211508,-0.30585 0.27957,-0.6895 0.27957,-1.08779 v -2.91042 c 0,-0.35312 -0.529686,-0.35312 -0.529686,0 v 2.91042 c 0,0.33462 -0.0663,0.61464 -0.1855184,0.78703 -0.1192178,0.1724 -0.2779469,0.2713 -0.6092629,0.2713 h -0.08785 v -3.96875 c 0.00159,-0.14847 -0.1192141,-0.26935 -0.2676821,-0.26768 -0.146177,0.002 -0.2631329,0.12151 -0.2614851,0.26768 v 3.96875 H 7.7319487 v -3.96875 c 0.0016,-0.14925 -0.120004,-0.27047 -0.269235,-0.26768 -0.145407,0.003 -0.261591,0.12226 -0.259932,0.26768 v 3.96875 h -0.08785 c -0.3313191,0 -0.4900451,-0.0989 -0.609266,-0.2713 -0.119219,-0.17239 -0.1855181,-0.45241 -0.1855181,-0.78703 v -2.91042 c 0.0019,-0.14855 -0.119134,-0.26942 -0.267684,-0.26768 z m 6.8533274,0.3793 -0.435631,0.40773 c -0.512546,0.47838 -1.122929,1.15766 -1.122929,1.97507 v 1.47433 c 0,0.43516 0.358071,0.79478 0.793234,0.79478 h 0.529167 v 0.79375 c 5.29e-4,0.14612 0.119496,0.26411 0.265615,0.26355 h 0.13281 v 4.54753 c -0.305453,0.11104 -0.527616,0.40347 -0.527616,0.74517 v 0.48008 c 0,0.15943 0.124727,0.31328 0.309115,0.31328 h 2.072228 c 0.145513,-5.3e-4 0.263252,-0.11856 0.263549,-0.26407 v -0.52917 c 0,-0.34317 -0.223732,-0.63628 -0.531234,-0.7462 v -4.5465 h 0.132808 c 0.146122,5.3e-4 0.265033,-0.11743 0.265618,-0.26355 v -0.79375 h 0.527098 c 0.435164,0 0.7953,-0.35962 0.7953,-0.79478 v -1.47433 c 0,-0.81741 -0.610899,-1.49669 -1.123445,-1.97507 l -0.435115,-0.40773 c -0.267742,-0.24989 -0.612251,-0.37517 -0.955543,-0.37523 -0.343291,-6e-5 -0.687287,0.12522 -0.955029,0.37511 z m 1.548744,0.38654 0.435631,0.40824 c 0.474475,0.44284 0.954981,1.05531 0.954981,1.58802 v 1.47433 c 0,0.15116 -0.114458,0.26561 -0.265617,0.26561 H 14.78664 v -0.79426 c -5.29e-4,-0.14531 -0.118237,-0.26297 -0.263548,-0.26355 h -1.275377 c -0.209055,0 -0.312692,0.13043 -0.312692,0.30858 v 0.74931 h -0.794782 c -0.151159,0 -0.264067,-0.11446 -0.264067,-0.26561 v -1.47433 c 0,-0.53271 0.481023,-1.14518 0.955497,-1.58802 l 0.435115,-0.40824 c 0.167924,-0.15674 0.38085,-0.23513 0.593786,-0.23517 0.21294,-4e-5 0.425866,0.0784 0.593789,0.23509 z m -0.990121,3.20704 h 0.793234 v 0.79272 c -5.29e-4,0.14692 0.118689,0.26617 0.265618,0.26561 v 0.52969 h -1.324467 v -0.52969 c 0.146925,5.3e-4 0.266173,-0.11869 0.265615,-0.26561 z m -6.0859333,0.79272 h 1.588016 v 0.7953 h -1.588016 z m 0.529167,1.32239 h 0.5296821 v 4.49844 l -0.5296821,-5.3e-4 z m 5.6875073,5.3e-4 h 0.529685 v 4.49792 l -0.529685,-5.3e-4 z m -5.9531253,5.02709 h 1.0588521 c 0.1511509,0 0.2656149,0.11447 0.2656149,0.26561 v 0.26355 h -1.588016 v -0.26355 c 0,-0.15114 0.112395,-0.26561 0.263549,-0.26561 z m 5.6916433,0 h 1.058333 c 0.151154,0 0.264067,0.11447 0.264067,0.26561 v 0.26355 H 13.06995 v -0.26355 c 0,-0.15114 0.112395,-0.26561 0.263549,-0.26561 z"
         style="color:#000000;font-style:normal;font-variant:normal;font-weight:normal;font-stretch:normal;font-size:medium;line-height:normal;font-family:sans-serif;font-variant-ligatures:normal;font-variant-position:normal;font-variant-caps:normal;font-variant-numeric:normal;font-variant-alternates:normal;font-feature-settings:normal;text-indent:0;text-align:start;text-decoration:none;text-decoration-line:none;text-decoration-style:solid;text-decoration-color:#000000;letter-spacing:normal;word-spacing:normal;text-transform:none;writing-mode:lr-tb;direction:ltr;text-orientation:mixed;dominant-baseline:auto;baseline-shift:baseline;text-anchor:start;white-space:normal;shape-padding:0;clip-rule:nonzero;display:inline;overflow:visible;visibility:visible;opacity:1;isolation:auto;mix-blend-mode:normal;color-interpolation:sRGB;color-interpolation-filters:linearRGB;solid-color:#000000;solid-opacity:1;vector-effect:none;fill:#1a1a1a;fill-opacity:1;fill-rule:nonzero;stroke:none;stroke-width:0.42979139;stroke-linecap:round;stroke-linejoin:round;stroke-miterlimit:4;stroke-dasharray:none;stroke-dashoffset:0;stroke-opacity:1;color-rendering:auto;image-rendering:auto;shape-rendering:auto;text-rendering:auto;enable-background:accumulate" />
    </g>
  </g>
</svg>
